<?xml version="1.0" standalone="no"?>
<!DOCTYPE svg PUBLIC "-//W3C//DTD SVG 20010904//EN"
 "http://www.w3.org/TR/2001/REC-SVG-20010904/DTD/svg10.dtd">
<svg version="1.0" xmlns="http://www.w3.org/2000/svg"
 width="700.000000pt" height="700.000000pt" viewBox="0 0 700.000000 700.000000"
 preserveAspectRatio="xMidYMid meet">
<metadata>
Created by potrace 1.14, written by Peter Selinger 2001-2017
</metadata>
<g transform="translate(0.000000,700.000000) scale(0.100000,-0.100000)"
fill="#000000" stroke="none">
<path d="M1280 6293 c-52 -8 -157 -46 -212 -75 -156 -83 -272 -222 -339 -408
l-24 -65 -3 -2215 c-3 -2493 -9 -2283 76 -2453 87 -174 255 -308 448 -357 76
-20 122 -20 2274 -20 2152 0 2198 0 2274 20 246 63 443 260 506 506 20 76 20
122 20 2274 0 2152 0 2198 -20 2274 -63 246 -260 443 -506 506 -76 20 -119 20
-2273 19 -1208 -1 -2207 -4 -2221 -6z m2567 -1044 c136 -28 250 -52 252 -55 2
-2 -153 -788 -345 -1747 l-348 -1743 -251 49 c-137 28 -251 51 -253 53 -3 2
691 3494 695 3494 1 0 113 -23 250 -51z m-1225 -696 c98 -98 178 -182 178
-188 0 -5 -192 -202 -427 -437 l-428 -428 428 -428 c235 -235 427 -432 427
-437 0 -6 -81 -91 -180 -190 l-180 -180 -618 618 -617 617 615 615 c338 338
617 615 620 615 3 0 85 -80 182 -177z m2558 -438 l615 -615 -615 -615 -615
-615 -185 185 -185 185 430 430 430 430 -428 428 c-235 235 -427 432 -427 437
0 10 350 365 360 365 3 0 282 -277 620 -615z"/>
</g>
</svg>
